<svg xmlns="http://www.w3.org/2000/svg" width="123" height="114" viewBox="0 0 123 114"><g fill="none" fill-rule="evenodd"><g opacity=".5"><g fill="#7F7F7F" fill-rule="nonzero"><path d="M70.454 61.481a24.93 24.93 0 0 1-9.926-1.9.88.88 0 0 1-.528-.81V30.61a.88.88 0 0 1 1.223-.801c7.216 3.071 14.573 1.575 22.361 0s15.682-3.177 23.4.106a.88.88 0 0 1 .536.818v28.055a.88.88 0 0 1-1.223.801c-7.216-3.071-14.573-1.549-22.361.053-4.435.889-8.976 1.84-13.482 1.84zm-8.694-3.3c7.04 2.772 14.23 1.294 21.815-.273 7.304-1.504 14.846-3.062 22.185-.422V31.315c-7.04-2.772-14.23-1.32-21.824.22-7.304 1.478-14.846 3.01-22.185.37V44.69c.009 4.4.009 8.94.009 13.49z"/><path d="M60.88 109.2c-.486 0-.88-.252-.88-.564V56.564c0-.312.394-.564.88-.564s.88.252.88.564v52.072c0 .312-.394.564-.88.564zm-6 0c-.486 0-.88-.306-.88-.682V55.682c0-.376.394-.682.88-.682s.88.306.88.682v52.836c0 .376-.394.682-.88.682zm12 0c-.486 0-.88-.187-.88-.418V76.418c0-.23.394-.418.88-.418s.88.187.88.418v32.364c0 .23-.394.418-.88.418zm20.68-57.24H81.4v-4.4H77V41.4h4.4V37h6.16v4.4h4.4v6.16h-4.4v4.4zm-4.4-1.76h2.64v-4.4h4.4v-2.64h-4.4v-4.4h-2.64v4.4h-4.4v2.64h4.4v4.4z"/><path d="M106.76 31.866c-14.96-6.354-29.982 6.098-44.88-.264-.053 9.495-.792 18.823-.88 28.318 14.96 6.354 30.8-7.234 45.76-.88.053-9.495-.053-17.68 0-27.174zM90.92 47.6h-4.4V52h-4.4v-4.4h-4.4v-4.4h4.4v-4.4h4.4v4.4h4.4v4.4z" opacity=".3"/></g><g fill="#7F7F7F" fill-rule="nonzero"><path d="M113.111 84.687v9.865c-12.444-5.21-25.618 3.092-38.329 2.562a22.8 22.8 0 0 1-7.893-1.72c.053-9.37.8-18.575.889-27.945 15.11 6.27 30.284-6.018 45.333.26v9.136s-10.418-.286-13.529.513l8.596-6.878 3.626-2.606-6.07-1.372-10.96 8.615-.294-7.885-8 1.667.071 8.754-17.111-8.97-2.516-.287v3.76l13.183 7.963s-11.627 1.294-13.183.721l-.186 7.816s9.778.286 11.146.07l-8.737 6.947s5.626 1.589 6.889 1.016c1.262-.573 10.275-9.345 10.275-9.345l.169 8.815 8-1.277v-8.171l11.049 6.947 7.618 1.737.373-2.892-11.538-6.66-.569-1.026 11.698-.13z" opacity=".3"/><path d="M74.25 97.276c-.378.002-.715-.22-.832-.546-.117-.327.011-.686.318-.888 3.901-2.574 7.715-5.545 11.267-8.318a.94.94 0 0 1 .868-.17.82.82 0 0 1 .582.61.755.755 0 0 1-.307.756c-3.578 2.828-7.427 5.8-11.345 8.406a.936.936 0 0 1-.55.15zm-5.76-.525a.873.873 0 0 1-.453-1.622 93.712 93.712 0 0 0 10.115-7.244.873.873 0 0 1 1.43.54.871.871 0 0 1-.34.82 95.126 95.126 0 0 1-10.306 7.375.873.873 0 0 1-.445.13zm25.93-20.88a.873.873 0 0 1-.568-1.534 132.633 132.633 0 0 1 11.555-9.128.873.873 0 0 1 .986 1.439 131.036 131.036 0 0 0-11.397 9.005.873.873 0 0 1-.576.218zm4.128 1.779a.873.873 0 0 1-.559-1.543 79.567 79.567 0 0 1 13.266-9.302.875.875 0 0 1 1.284.802.874.874 0 0 1-.464.74 77.83 77.83 0 0 0-13.012 9.102.873.873 0 0 1-.515.2zm6.056 16.764a.873.873 0 0 1-.488-.148 79.377 79.377 0 0 0-10.159-5.963.873.873 0 1 1 .786-1.56 81.916 81.916 0 0 1 10.35 6.102.871.871 0 0 1-.489 1.596v-.027zm7.375-.226a.873.873 0 0 1-.55-.2 81.58 81.58 0 0 0-12.218-8.213.878.878 0 1 1 .873-1.526 83.325 83.325 0 0 1 12.506 8.387.871.871 0 0 1-.55 1.543l-.061.009zm-26.034-15.24a.874.874 0 0 1-.384-.086 109.172 109.172 0 0 1-16.023-9.285.871.871 0 1 1 1.021-1.412A107.644 107.644 0 0 0 86.34 77.3a.871.871 0 0 1-.394 1.648zm-6.178 2.25c-4.802-2.529-8.354-4.503-12.598-7.884a.873.873 0 1 1 1.1-1.36c4.162 3.318 7.626 5.237 12.335 7.718a.871.871 0 0 1-.419 1.64 1.004 1.004 0 0 1-.418-.114z"/><path d="M85.945 96.16a.872.872 0 0 1-.872-.871v-6.846c-5.63 1.028-11.061 1.952-17.432 1.16l-.768-.097v-9.59l.977.122c6.249.776 11.646-.183 17.223-1.203V68.426a.872.872 0 0 1 1.745 0v11.857l-.715.13c-5.586 1.046-11.035 2.084-17.485 1.465v6.103c6.275.645 11.655-.393 17.17-1.422l1.03-.191v8.93a.872.872 0 0 1-.873.863zm6.982-2.153v-8.816l.716-.131c5.577-1.003 11.555-1.822 17.612-1.142v-6.103c-5.9-.697-11.791.114-17.298 1.099l-1.03.183V66.892a.872.872 0 0 1 1.746 0V77.03c5.594-.968 11.555-1.674 17.576-.872l.751.105v9.59l-.995-.14c-5.9-.828-11.8-.096-17.332.872v7.351a.871.871 0 0 1-.873.942.872.872 0 0 1-.873-.872z"/><path d="M76.56 97.997c-3.438.05-6.85-.587-10.027-1.873a.867.867 0 0 1-.533-.798V67.573a.862.862 0 0 1 .402-.716.908.908 0 0 1 .834-.073c7.288 3.027 14.72 1.552 22.586 0 7.867-1.553 15.84-3.131 23.636.104a.867.867 0 0 1 .542.806v27.649a.862.862 0 0 1-.402.717.908.908 0 0 1-.834.073c-7.288-3.027-14.72-1.535-22.586.052-4.48.876-9.067 1.812-13.618 1.812zm-8.782-3.252c7.11 2.732 14.373 1.275 22.035-.269 7.378-1.483 14.996-3.018 22.41-.416V68.267c-7.112-2.732-14.374-1.301-22.045.217-7.378 1.457-14.996 2.966-22.41.364V81.45c.01 4.336.01 8.811.01 13.295z"/></g><path fill="#D8D8D8" d="M8.015 56.864c15.287-6.354 30.637 6.098 45.86-.264.055 9.495.81 18.823.9 28.318-15.287 6.354-31.473-7.233-46.76-.88-.054-9.495.054-17.679 0-27.174z"/><path fill="#7F7F7F" fill-rule="nonzero" d="M45.066 86.496c-4.515 0-9.038-.933-13.482-1.848-7.788-1.61-15.145-3.124-22.36-.053A.88.88 0 0 1 8 83.785V55.732a.88.88 0 0 1 .537-.818c7.717-3.283 15.69-1.672 23.399-.106 7.709 1.567 15.145 3.071 22.36 0a.88.88 0 0 1 1.224.819v28.16a.88.88 0 0 1-.537.818 24.93 24.93 0 0 1-9.917 1.892zm-26.603-5.42c4.515 0 9.038.932 13.482 1.847 7.594 1.567 14.775 3.045 21.815.273V56.919c-7.34 2.64-14.88 1.109-22.185-.37-7.594-1.54-14.784-2.991-21.824-.22v26.172a25.467 25.467 0 0 1 8.703-1.426h.01z"/></g><path fill="#7F7F7F" fill-rule="nonzero" d="M122.208 110.76H.352c-.195 0-.352-.394-.352-.88s.157-.88.352-.88h121.856c.195 0 .352.394.352.88s-.157.88-.352.88zm-61.812 3H12.484c-.267 0-.484-.394-.484-.88s.217-.88.484-.88h47.912c.267 0 .484.394.484.88s-.217.88-.484.88zm49.404 0H64.52c-.287 0-.52-.394-.52-.88s.233-.88.52-.88h45.28c.287 0 .52.394.52.88s-.233.88-.52.88z" opacity=".5"/><path fill="#BFBFBF" fill-rule="nonzero" d="M30.65 19.078a1.034 1.034 0 0 1-.019-.31.675.675 0 0 1 .12-.31 1.09 1.09 0 0 1 .269-.32 2.3 2.3 0 0 1 .544-.248.601.601 0 0 1 .492.03c.159.1.27.262.308.45l.33 1.54a4.755 4.755 0 0 1 1.159-.115c.296.014.466.112.514.27a.991.991 0 0 1 .03.231 2.699 2.699 0 0 1-.055.483 1.42 1.42 0 0 1-.202.507.747.747 0 0 1-.402.28l-.633.204.533 2.431c.448.122.913.262 1.395.421.471.153.926.347 1.359.582a5.02 5.02 0 0 1 1.1.805c.305.29.526.658.642 1.068.123.42.127.87.011 1.303-.112.407-.305.79-.567 1.127-.27.34-.59.637-.948.88a4.438 4.438 0 0 1-1.11.539l-.19.06-.207.047.45 1.847c.02.104.024.212.011.32a.709.709 0 0 1-.113.3 1.017 1.017 0 0 1-.268.32 2.39 2.39 0 0 1-.56.25.568.568 0 0 1-.484-.039.724.724 0 0 1-.301-.458l-.515-2.387a5.85 5.85 0 0 1-1.226-.205 4.47 4.47 0 0 1-1.129-.521 3.662 3.662 0 0 1-.91-.765 2.89 2.89 0 0 1-.525-1.042 3.617 3.617 0 0 1-.092-.474 1.545 1.545 0 0 1 .002-.469.92.92 0 0 1 .155-.384.665.665 0 0 1 .358-.244l.154-.033.162-.01h.21a.797.797 0 0 1 .273.008c.096.017.19.045.278.086.085.047.16.11.221.186a.554.554 0 0 1 .14.25c.093.36.276.686.534.947.259.255.567.453.907.585l-.681-3.07-1.486-.38c-.42-.108-.83-.242-1.23-.4a3.853 3.853 0 0 1-.952-.534 1.322 1.322 0 0 1-.48-.712 1.52 1.52 0 0 1 .07-1.015 3.36 3.36 0 0 1 .616-.952c.3-.322.634-.609.997-.854a7.759 7.759 0 0 1 1.156-.662l-.214-1.444zm-.258 4.075c.027.097.084.18.163.24.096.072.201.13.314.175.125.051.255.091.388.12l.403.088-.355-1.561-.377.183c-.115.058-.223.13-.321.216a.922.922 0 0 0-.203.241.39.39 0 0 0-.005.29l-.007.008zm4.374 6.155l.307-.066.298-.088c.128-.041.252-.095.37-.16.122-.061.235-.14.336-.232a.827.827 0 0 0 .239-.285.57.57 0 0 0 .016-.369 1.099 1.099 0 0 0-.26-.44 3.232 3.232 0 0 0-.51-.426 4.57 4.57 0 0 0-1.37-.65l.574 2.716z"/><path d="M21.5 61.25l1.299 4.295H27l-3.396 2.66 1.298 4.295-3.402-2.653-3.402 2.653 1.304-4.295L16 65.545h4.201zM32.071 77l-1.095-1.335-1.62.622.939-1.444-1.095-1.342 1.678.443.946-1.444.091 1.72 1.685.443-1.627.617zm2.4-4.5l.502-1.717-1.373-1.039 1.68-.027.495-1.717.545 1.703 1.68-.02-1.348 1.073.539 1.704-1.372-1.04zm3.061-8.597l-.748 1.567L38 66.686l-1.678-.247L35.575 68l-.291-1.717-1.684-.247 1.507-.813-.291-1.723 1.215 1.216zM32.123 59l-.129 1.716 1.606.65-1.684.411-.122 1.723-.91-1.466-1.684.412 1.116-1.318-.916-1.459 1.606.649z" fill="#B7B7B7" fill-rule="nonzero"/><path fill="#BFBFBF" fill-rule="nonzero" d="M52.107 8.535v.496a.497.497 0 0 0 .994 0v-.496h.496a.497.497 0 0 0 0-.994h-.496v-.497a.497.497 0 1 0-.994 0v.497h-.497a.497.497 0 0 0 0 .994h.497zM10.78 39.88v.333a.333.333 0 1 0 .667 0v-.333h.333a.333.333 0 1 0 0-.667h-.333v-.333a.333.333 0 0 0-.667 0v.333h-.333a.333.333 0 1 0 0 .667h.333z"/><circle cx="12" cy="4" r="1" fill="#BFBFBF" fill-rule="nonzero"/><circle cx="108" cy="4" r="1" fill="#BFBFBF" fill-rule="nonzero"/><circle cx="99.5" cy="19.5" r="1" fill="#BFBFBF" fill-rule="nonzero"/><path fill="#BFBFBF" fill-rule="nonzero" d="M80.396 8.336c-.377-.188-.485-.44-.324-.755l.066-.108c.043-.067.09-.13.142-.191.06-.072.13-.136.207-.191.08-.059.17-.1.266-.125l.265-.05a.996.996 0 0 0 .216-.058.656.656 0 0 0 .183-.108.623.623 0 0 0 .15-.199l.331-.656.274-.53c.089-.172.18-.341.274-.507a.232.232 0 0 0-.124-.349l-1.345-.548a.398.398 0 0 1-.166-.365c0-.18.042-.356.124-.515a1.32 1.32 0 0 1 .308-.398.448.448 0 0 1 .182-.092.257.257 0 0 1 .183 0l.647.3.83.348c.134.06.29.005.358-.125.31-.522.657-1.02 1.037-1.494.273-.34.58-.65.913-.93.25-.207.53-.375.83-.498a2.75 2.75 0 0 1 .706-.183 2.89 2.89 0 0 1 .465 0 .764.764 0 0 1 .648.349 1.546 1.546 0 0 1 .315.863.83.83 0 0 1-.083.424.216.216 0 0 1-.199.124 3.586 3.586 0 0 0-.83.075 2.374 2.374 0 0 0-.74.299 3.32 3.32 0 0 0-.713.598c-.273.305-.52.633-.739.98a.349.349 0 0 0-.041.19c0 .058.05.1.124.141.14.067.284.122.432.166l.622.2.648.207c.168.052.331.116.49.191.096.05.144.161.116.266-.02.142-.065.28-.133.407a1.96 1.96 0 0 1-.158.257 1.503 1.503 0 0 1-.199.224.64.64 0 0 1-.216.141.315.315 0 0 1-.232 0l-2.084-.788a.24.24 0 0 0-.257 0 1.07 1.07 0 0 0-.175.265l-.464.922c-.144.288-.28.564-.407.83a.39.39 0 0 0 .19.564L85.8 8.992a.68.68 0 0 1 .357.34.664.664 0 0 1-.083.523.98.98 0 0 1-.448.499.697.697 0 0 1-.565 0l-4.665-2.018z"/></g></svg>