<svg xmlns="http://www.w3.org/2000/svg" width="123" height="117" viewBox="0 0 123 117"><g fill="none" opacity=".5"><path fill="#7F7F7F" d="M80.94 112.678h34.983V103.9c0-5.666-3.763-11.359-8.917-13.296 0 0-1.895 13.088-10.487 14.527 0 0-7.983-1.19-10.376-14.41-.235-1.328-4.324 2.36-7.112 6.62.035.015 2.29.471 1.91 15.337z" opacity=".3"/><path fill="#7F7F7F" d="M79.398 97.301l-1.19-.692c2.726-4.614 7.014-7.374 11.476-7.374h4.739v1.384h-4.739c-3.957-.007-7.81 2.49-10.286 6.682zm37.217 16.07H80.94v-1.384h34.291v-8.086c-.788-7.928-7.187-13.296-12.673-13.296h-3.237V89.22h3.237c7.54 0 13.351 7.554 14.05 14.61l.007 9.54z"/><path fill="#7F7F7F" d="M96.637 105.83c-6.226 0-10.986-10.812-10.986-15.218h1.384c0 3.79 4.358 13.835 9.602 13.835 5.243 0 9.601-10.051 9.601-13.835h1.384c0 4.413-4.753 15.219-10.985 15.219zm10.293 3.39h1.384v2.767h-1.384zm-21.445 0h1.384v2.767h-1.384zm13.836-21.714h1.384v2.414h-1.384zm-6.275.692h1.384v1.722h-1.384z"/><path fill="#7F7F7F" d="M104.114 84.621c5.472-.242 10.024-.553 11.636-.65 4.358-.256 2.075-6.226 2.075-6.226-3.161-5.617-2.075-14.873-2.075-14.873.065-10.63-8.498-19.3-19.127-19.369h-.976a19.314 19.314 0 0 1 15.399 19.024s-1.107 9.255 2.075 14.872c0 0 2.304 5.97-2.075 6.226-1.107.07-3.597.229-6.814.408l-.118.588z" opacity=".3"/><path fill="#7F7F7F" d="M105.097 84.946a.692.692 0 0 1 0-1.383c3.943-.18 6.952-.388 8.944-.526l1.626-.11a1.93 1.93 0 0 0 1.64-.796c.774-1.204.152-3.577-.173-4.448-3.127-5.617-2.2-14.43-2.11-15.22.03-10.226-8.21-18.555-18.436-18.635a18.373 18.373 0 0 0-13.676 6.15.692.692 0 1 1-1.03-.92 19.757 19.757 0 0 1 14.706-6.607c11.007.08 19.873 9.054 19.82 20.061a.692.692 0 0 1 0 .083c0 .09-1.045 9.097 1.964 14.451l.041.09c.146.374 1.384 3.701.063 5.735a3.251 3.251 0 0 1-2.719 1.432l-1.612.11c-1.999.139-5.022.347-8.993.526l-.055.007zm-16.782.325c-4.933-.069-8.135-.373-10.377-.996a7.533 7.533 0 0 1-2.013-.947.694.694 0 0 1 .789-1.142c.494.327 1.032.58 1.598.754 2.123.588 5.223.879 10.03.948a.692.692 0 1 1 0 1.383h-.027z"/><path fill="#7F7F7F" d="M108.555 61.489v6.918c0 7.367-6.032 19.03-13.759 19.936.663.081 1.331.123 2 .125 8.66 0 14.243-12.078 14.243-20.061v-6.918" opacity=".3"/><path fill="#7F7F7F" d="M96.519 89.16c-3.798 0-7.554-2.616-10.584-7.354-2.636-4.15-4.268-9.256-4.268-13.4v-6.143a.692.692 0 1 1 1.383 0v6.143c0 3.895 1.55 8.744 4.054 12.66 2.726 4.268 6.157 6.717 9.415 6.717 3.258 0 6.69-2.45 9.415-6.718 2.497-3.908 4.054-8.757 4.054-12.659v-6.281c-11.698-1.1-16.603-5.043-18.477-7.215-.962 2.359-3.847 3.915-6.06 5.112-.547.297-1.059.574-1.488.83a.692.692 0 1 1-.691-1.183c.442-.27.975-.56 1.542-.864 2.408-1.301 5.707-3.086 5.659-5.618a.692.692 0 0 1 1.321-.297s.803 1.653 3.5 3.459c2.519 1.667 7.243 3.79 15.455 4.475.36.03.637.33.636.692v6.918c0 4.15-1.633 9.283-4.268 13.4-3.044 4.731-6.8 7.325-10.598 7.325z"/><path fill="#7F7F7F" d="M96.498 80.789h-.366a4.289 4.289 0 0 1-2.795-1.66.692.692 0 0 1 1.12-.81c.458.583 1.121.97 1.854 1.08a3.542 3.542 0 0 0 2.643-1.177.692.692 0 1 1 .94 1.01 5.008 5.008 0 0 1-3.396 1.557z"/><circle cx="102.856" cy="66.947" r="1.46" fill="#7F7F7F"/><path fill="#7F7F7F" d="M96.353 75.15a3.32 3.32 0 0 1-1.799-.539.692.692 0 1 1 .803-1.127 1.875 1.875 0 0 0 2.006 0 .693.693 0 0 1 .733 1.176 3.23 3.23 0 0 1-1.743.49z"/><circle cx="90.252" cy="66.787" r="1.46" fill="#7F7F7F"/><path fill="#7F7F7F" d="M96.554 105.761a.692.692 0 0 1-.692-.691v-2.076a.692.692 0 1 1 1.383 0v2.076c0 .382-.31.691-.691.691z"/><path fill="#7F7F7F" d="M42.368 51.513c-1.646-2.013-3.127-2.65-6.094-4.455-3.86-2.352-7.126-2.912-9.824-2.518a19.854 19.854 0 0 1 3.944 1.875c5.381 3.313 8.294 5.388 9.843 11.808.35 1.4.556 2.833.616 4.275a26.764 26.764 0 0 1 1.702 8.094c.166 4.33-.38 5.32-.38 5.32 2.766-3.46 3.852-5.576 4.24-8.675 0 0-5.064-2.961-5.444-7.783a14.783 14.783 0 0 1 1.397-7.941z" opacity=".3"/><path fill="#7F7F7F" d="M42.838 75.912a.692.692 0 0 1-.54-1.128c2.325-2.864 2.878-4.987 3.404-7.685a.704.704 0 0 1 1.384.263 16.533 16.533 0 0 1-3.688 8.3.692.692 0 0 1-.56.25zm-28.023-.733h-.104c-.07 0-6.918-1.142-6.018-11.65-.229-.837-1.273-5.236.954-8.502 1.321-1.93 3.514-3.064 6.517-3.368.691-1.336 3.458-5.901 8.53-7.43 3.672-1.107 7.692-.353 11.946 2.248a30.811 30.811 0 0 1 6.226 4.566.692.692 0 0 1-.996.961 29.787 29.787 0 0 0-5.95-4.35c-3.908-2.38-7.554-3.086-10.833-2.076-5.243 1.55-7.844 6.966-7.844 7.021a.692.692 0 0 1-.574.395c-2.767.207-4.732 1.155-5.867 2.767-2.075 2.988-.754 7.415-.74 7.457a.692.692 0 0 1 0 .263c-.844 9.27 4.607 10.245 4.843 10.28a.694.694 0 0 1-.104 1.383l.014.035z"/><path fill="#7F7F7F" d="M44.056 99.28c1.044-1.924-5.763-6.863-10.605-6.863h-3.936a11.629 11.629 0 0 1 11.76 12.01v8.3h2.075l-.124-9.421a9.622 9.622 0 0 1 .83-4.027z" opacity=".3"/><path fill="#7F7F7F" opacity=".3" d="M9.392 109.469H42.97v2.622H9.392zm0-5.25h22.296v2.622H9.392zm28.196 0h5.382v2.622h-5.382zm5.755-2.622H9.392l1.314-2.622h33.44zm-17.931-7.865h-10.12l-2.622 2.622h29.51l-2.621-2.622H31.97l-2.456 2.241-1.432-.062-1.639-.872z"/><path fill="#7F7F7F" d="M43.488 98.844a11.068 11.068 0 0 0-9.76-5.756h-1.764v-1.383h1.764a12.452 12.452 0 0 1 10.97 6.475l-1.21.664zm-.595 14.596H9.357v-8.993a11.87 11.87 0 0 1 3.251-8.896 12.14 12.14 0 0 1 8.917-3.812h3.943v1.384h-3.943a10.77 10.77 0 0 0-7.914 3.376 10.529 10.529 0 0 0-2.87 7.879v7.679h32.152v1.383z"/><path fill="#7F7F7F" d="M28.691 96.941a3.978 3.978 0 0 1-3.97-3.97v-1.335h1.383v1.335a2.587 2.587 0 0 0 5.175 0v-1.335h1.383v1.335a3.978 3.978 0 0 1-3.97 3.97zm10.176 12.528h1.384v2.622h-1.384zm-20.988 0h1.384v2.622h-1.384z"/><path fill="#7F7F7F" d="M37.352 59.517a7.533 7.533 0 0 1-2.477.505 8.26 8.26 0 0 1 4.255 7.367v11.802a13.835 13.835 0 0 1-12.037 13.648c.576.078 1.156.12 1.736.125 1.958 0 13.773-6.226 13.773-13.773V67.389a8.301 8.301 0 0 0-5.25-7.872z" opacity=".3"/><path fill="#7F7F7F" d="M28.408 93.365h-.16C14.663 90.176 14.13 77.302 14.13 77.171v-9.768c.1-.872.25-1.739.45-2.594.351-1.45.583-2.926.691-4.413l-.207-.277a.692.692 0 0 1 1.107-.83l.249.325c.767-.125 3.272-1.847 5.658-3.902a.692.692 0 0 1 .816-.062c8.82 5.465 13.905 3.279 13.953 3.251a.692.692 0 0 1 .568 0 9.104 9.104 0 0 1 5.658 8.55v10.377c-.332 13.503-14.416 15.502-14.527 15.516l-.138.021zM16.606 60.977a32.734 32.734 0 0 1-.691 4.15c-.181.781-.322 1.57-.422 2.366v9.685c0 .463.518 11.843 12.929 14.838a19.473 19.473 0 0 0 6.51-2.435 13.33 13.33 0 0 0 6.723-11.718V67.486a7.61 7.61 0 0 0-4.58-7.118c-1.293.45-6.405 1.68-14.526-3.196-1.515 1.224-4.365 3.486-5.943 3.805z"/><path fill="#7F7F7F" d="M28.58 85.133a6.489 6.489 0 0 1-3.569-1.01.692.692 0 1 1 .803-1.127c.104.069 2.49 1.68 5.838-.049a.693.693 0 0 1 .637 1.231 8.018 8.018 0 0 1-3.708.955zm-4.025-9.187H19.02c-1.557 0-3.023-1.169-3.743-2.981a.692.692 0 0 1-.048-.256v-5.928c0-.382.31-.692.692-.692h8.633a3.237 3.237 0 0 1 3.237 3.237v3.39a3.237 3.237 0 0 1-3.237 3.23zm-7.914-3.39c.408.942 1.259 1.986 2.407 1.986h5.534a1.854 1.854 0 0 0 1.854-1.854v-3.39a1.854 1.854 0 0 0-1.854-1.853h-7.941v5.112z"/><path fill="#7F7F7F" d="M16.503 69.389h-3.176a.692.692 0 1 1 0-1.384h3.176a.692.692 0 1 1 0 1.384z"/><circle cx="22.002" cy="70.592" r="1.162" fill="#7F7F7F"/><path fill="#7F7F7F" d="M38.425 75.946H32.89a3.237 3.237 0 0 1-3.237-3.237v-3.39a3.237 3.237 0 0 1 3.237-3.237h8.634c.382 0 .691.31.691.692v5.928a.692.692 0 0 1-.048.256c-.712 1.82-2.186 2.988-3.742 2.988zm-5.535-8.474c-1.023 0-1.853.83-1.853 1.854v3.39c0 1.024.83 1.854 1.853 1.854h5.535c1.148 0 1.999-1.045 2.407-1.986V67.48l-7.942-.007z"/><path fill="#7F7F7F" d="M44.146 69.389H40.97a.692.692 0 1 1 0-1.384h3.176a.692.692 0 1 1 0 1.384z"/><circle cx="35.471" cy="70.592" r="1.162" fill="#7F7F7F"/><path fill="#7F7F7F" d="M30.386 70.046h-2.621a.692.692 0 1 1 0-1.384h2.621a.692.692 0 0 1 0 1.384zM28.43 80.47a4.4 4.4 0 0 1-2.387-.692.692.692 0 0 1 .802-1.128 2.94 2.94 0 0 0 3.169 0 .693.693 0 1 1 .733 1.176 4.31 4.31 0 0 1-2.317.644zm6.212 30.34a3.646 3.646 0 0 1-3.646-3.645v-4.919c0-.382.31-.691.692-.691h5.9c.383 0 .692.31.692.691v4.898a3.646 3.646 0 0 1-3.638 3.666zm-2.262-7.865v4.199a2.262 2.262 0 0 0 4.517 0v-4.227l-4.517.028z"/><path fill="#68FF5C" d="M10.367 52.765l-.146-.193.146.193zm.103.139l-.103-.139.103.139zm.035.048l-.035-.048.035.048zm3.466 0l-.035-.048.035.048zm-.139-.187l-.145-.193.145.193zm.104.139l-.104-.139.104.139z"/><path fill="#7F7F7F" d="M68.274 91.303h-4.15c6.986.023 12.643 5.68 12.666 12.666v8.779h4.15v-8.779c-.022-6.986-5.68-12.643-12.666-12.666z" opacity=".3"/><path fill="#7F7F7F" d="M81.632 113.44h-39.43v-9.47c-.039-7.329 5.863-13.305 13.192-13.358h12.88c7.373.011 13.347 5.985 13.358 13.358v9.47zm-38.047-1.383H80.25v-8.087c-.008-6.61-5.365-11.967-11.975-11.975h-12.88c-6.565.054-11.847 5.41-11.809 11.975v8.087z"/><path d="M122.208 113.76H.352c-.195 0-.352-.394-.352-.88s.157-.88.352-.88h121.856c.195 0 .352.394.352.88s-.157.88-.352.88zm-61.812 3H12.484c-.267 0-.484-.394-.484-.88s.217-.88.484-.88h47.912c.267 0 .484.394.484.88s-.217.88-.484.88zm49.404 0H64.52c-.287 0-.52-.394-.52-.88s.233-.88.52-.88h45.28c.287 0 .52.394.52.88s-.233.88-.52.88z" fill="#7F7F7F"/><path fill="#7F7F7F" d="M60.188 112.748h-2.076V91.303h9.685v21.445h-2.075l-1.44-12.75 1.44-1.75-1.785-2.767s2.726-2.69 2.719-3.327c-.007-.636-2.505-.546-2.505-.546l-5.001.18s.387 2.075 1.702 3.009c1.314.933.954.961.954.961l-1.473 2.394 1.238 1.653-1.383 12.943z" opacity=".3"/><path fill="#7F7F7F" d="M68.489 113.44H57.42V90.612h11.07v22.828zm-9.685-1.383h8.301V91.995h-8.301v20.062z"/><path fill="#7F7F7F" d="M66.49 113.44h-7.07l1.466-13.738 1.377.145-1.308 12.21h3.999l-1.301-12.21 1.377-.145z"/><path fill="#7F7F7F" d="M62.955 101.673a.692.692 0 0 1-.492-.2l-2.767-2.768a.692.692 0 0 1-.048-.92l2.075-2.608 1.08.865-1.689 2.11 1.84 1.84 1.84-1.84-1.777-2.22 1.079-.865 2.165 2.705c.22.274.2.67-.048.92l-2.767 2.767a.692.692 0 0 1-.491.214z"/><path fill="#7F7F7F" d="M62.955 96.201a4.365 4.365 0 0 1-4.359-4.358v-1.141h1.384v1.141a2.975 2.975 0 1 0 5.95 0v-1.141h1.383v1.141a4.365 4.365 0 0 1-4.358 4.358zm10.376 13.088h1.384v2.767h-1.384zm-22.136 0h1.384v2.767h-1.384z"/><path fill="#7F7F7F" d="M48.517 68.814a13.434 13.434 0 0 1-7.609-9.684c-1.425-7.27 5.534-9.685 5.534-9.685 8.025-9.685 16.312-9.512 16.312-9.512 9.574 0 15.786 9.09 15.786 9.09 5.603.961 6.108 5.347 6.108 5.347 2.546 4.919-6.62 12.3-6.62 12.3l-.657.048s1.307-7.713-5.306-10.494c0 0-10.46 4.15-19.155.692l-3.369-2.034s-2.034-.865-2.206.609a30.652 30.652 0 0 0 .172 4.69l1.038 7.43-.028 1.203z" opacity=".3"/><path fill="#7F7F7F" d="M48.324 68.987a.692.692 0 0 1-.25-.048 14.022 14.022 0 0 1-8.038-10.218c-1.383-7.062 4.628-9.912 5.797-10.376 8.073-9.685 16.374-9.63 16.741-9.622 9.041 0 15.08 7.657 16.174 9.152 5.215 1.03 6.225 4.966 6.37 5.755 2.616 5.354-6.46 12.742-6.848 13.06a.692.692 0 0 1-.844-1.05c2.428-1.959 8.301-7.825 6.44-11.443l-.055-.11v-.125c0-.152-.546-3.888-5.534-4.745l-.29-.049-.166-.242c-.063-.09-6.13-8.792-15.22-8.792-.082 0-8.086 0-15.778 9.256l-.125.152-.18.062c-.263.09-6.37 2.317-5.084 8.896a12.798 12.798 0 0 0 7.18 9.173.692.692 0 0 1-.249 1.335l-.041-.02z"/><path fill="#7F7F7F" d="M62.85 92.01c-8.404 0-15.218-6.814-15.218-15.22V64.256a12.016 12.016 0 0 0-.581-3.127 18.802 18.802 0 0 1-.803-4.427 2.573 2.573 0 0 1 1.71-2.65 2.767 2.767 0 0 1 2.994.851c.464.616 2.934 1.453 4.449 1.82 9.539 2.766 16-1.253 16.062-1.294l.312-.2.339.151a9.567 9.567 0 0 1 5.942 8.993v12.404A15.219 15.219 0 0 1 62.85 92.009zM49.017 64.338V76.79c0 7.641 6.194 13.836 13.835 13.836 7.64 0 13.835-6.195 13.835-13.836V64.34a8.018 8.018 0 0 0-4.794-7.52c-1.5.844-7.83 3.895-16.837 1.266-.692-.166-4.269-1.08-5.202-2.324a1.384 1.384 0 0 0-1.453-.367c-.524.225-.835.77-.761 1.335.086 1.38.332 2.745.733 4.068.388 1.152.604 2.354.644 3.57v-.028z"/><path fill="#7F7F7F" d="M77.377 71.754v5.534c-.022 8.014-6.513 14.504-14.527 14.527-8.013-.023-14.504-6.513-14.527-14.527v-5.534s2.352 9.27 4.15 10.377c1.8 1.106 4.152-.692 4.152-.692s3.458-2.629 11.068 0c0 0 2.767 1.798 4.15 0 1.384-1.799 5.534-9.685 5.534-9.685z" opacity=".3"/><path fill="#7F7F7F" d="M62.85 92.507c-8.404 0-15.218-6.813-15.218-15.219V66.22l1.384 5.368c.947 3.736 2.767 9.298 3.846 9.955 1.383.837 3.348-.637 3.369-.65.152-.118 3.846-2.823 11.711-.104l.152.076s2.249 1.425 3.224.159c1.328-1.73 5.43-9.505 5.472-9.588l1.3-2.476v8.3a15.219 15.219 0 0 1-15.24 15.247zm-13.834-15.91v.691c0 7.641 6.194 13.836 13.835 13.836 7.64 0 13.835-6.195 13.835-13.836v-2.767a83.946 83.946 0 0 1-4.296 7.347c-1.383 1.785-3.825.94-5.001.207-7.05-2.407-10.321-.096-10.377-.076-.055.021-2.767 2.076-4.925.727-1.065-.678-2.207-3.487-3.071-6.115v-.014z"/><path fill="#7F7F7F" d="M62.837 85.825a6.793 6.793 0 0 1-3.742-1.059.692.692 0 0 1 .802-1.127c.118.083 2.65 1.785 6.226-.049a.693.693 0 0 1 .636 1.232 8.426 8.426 0 0 1-3.922 1.003zm1.287-7.672a2.988 2.988 0 0 1-2.408-1.01c-1.487-1.757-.567-5.077-.456-5.45a.693.693 0 0 1 1.328.393c-.242.817-.692 3.155.187 4.151.485.47 1.18.653 1.833.484a.697.697 0 1 1 .166 1.384 5.45 5.45 0 0 1-.65.048zm-6.012-9.857a.692.692 0 0 1-.692-.692 1.384 1.384 0 0 0-2.767 0 .692.692 0 1 1-1.383 0 2.767 2.767 0 0 1 5.534 0c0 .382-.31.692-.692.692zm12.452 0a.692.692 0 0 1-.692-.692 1.384 1.384 0 0 0-2.767 0 .692.692 0 1 1-1.383 0 2.767 2.767 0 0 1 5.534 0c0 .382-.31.692-.692.692zm35.543-54.761v.496a.497.497 0 0 0 .994 0v-.496h.496a.497.497 0 1 0 0-.994h-.496v-.497a.497.497 0 0 0-.994 0v.497h-.497a.497.497 0 1 0 0 .994h.497zm-39.333 9.333v.83a.83.83 0 1 0 1.66 0v-.83h.83a.83.83 0 1 0 0-1.66h-.83v-.83a.83.83 0 0 0-1.66 0v.83h-.83a.83.83 0 1 0 0 1.66h.83z"/><circle cx="34" cy="1" r="1" fill="#7F7F7F"/><circle cx="10" cy="9" r="1" fill="#7F7F7F"/><circle cx="90" cy="9" r="1" fill="#7F7F7F"/><path fill="#7F7F7F" d="M18.264 21.99c-.449.052-.707-.074-.765-.386l-.053-.063a.16.16 0 0 1 .05-.042l.066-.975a.63.63 0 0 1 .223-.422.976.976 0 0 1 .476-.182l.688-.091.69-.11c.136-.694.366-1.36.683-1.98a6.824 6.824 0 0 1 1.177-1.636c.46-.473.991-.87 1.576-1.178a5.665 5.665 0 0 1 1.923-.605 4.513 4.513 0 0 1 1.167-.006c.334.043.661.14.97.285.268.124.51.301.71.522.182.203.303.453.348.718.04.21.034.424-.018.627-.054.2-.145.387-.269.55a1.72 1.72 0 0 1-.479.402 1.427 1.427 0 0 1-.581.218.894.894 0 0 1-.574-.096 2.89 2.89 0 0 1-.446-.31 3.241 3.241 0 0 0-.447-.31.908.908 0 0 0-.573-.095 2.62 2.62 0 0 0-1.563.77 3.763 3.763 0 0 0-.94 1.654l2.358-.43 2.36-.448.134-.022a.774.774 0 0 1 .46.082.569.569 0 0 1 .249.296l.124.959a.637.637 0 0 1-.136.512.611.611 0 0 1-.475.217l-2.61.496-2.651.423.024.232.043.234c.036.202.084.402.146.599l2.415-.423 2.484-.463.134-.022a.544.544 0 0 1 .408.076.583.583 0 0 1 .25.344l.124.978a.57.57 0 0 1-.13.452.843.843 0 0 1-.46.242l-2.005.385-1.985.368a5.25 5.25 0 0 0 2.17 1.188 6.933 6.933 0 0 0 2.845.172c.394-.047.777-.15 1.137-.306a4.53 4.53 0 0 0 .893-.515 2.46 2.46 0 0 0 .564-.563.685.685 0 0 0 .152-.488.905.905 0 0 0-.158-.39l-.24-.286a3.22 3.22 0 0 1-.257-.306 1.208 1.208 0 0 1-.142-.98 1.46 1.46 0 0 1 .246-.477 1.45 1.45 0 0 1 .418-.351 1.38 1.38 0 0 1 .514-.178c.217-.026.44.02.637.131.23.127.434.3.597.509.196.252.358.528.483.82.15.343.256.701.318 1.066a2.772 2.772 0 0 1-.166 1.545 4.318 4.318 0 0 1-.985 1.458 6.151 6.151 0 0 1-1.68 1.157 7.272 7.272 0 0 1-2.258.65c-.878.12-1.774.127-2.667.022a8.818 8.818 0 0 1-2.318-.595 7.175 7.175 0 0 1-1.897-1.148 6.333 6.333 0 0 1-1.366-1.628c-.575.098-1.13.185-1.666.263a.822.822 0 0 1-.537-.073.451.451 0 0 1-.248-.296l-.053-.063a.188.188 0 0 1 .006-.114l.073-.926a.683.683 0 0 1 .226-.46.886.886 0 0 1 .466-.193l.44-.063.44-.063-.02-.145-.069-.447-.04-.453-.632.098-.526.081zM56.676 6.107c-.25-.05-.362-.157-.327-.326l-.015-.041a.1.1 0 0 1 .035-.013l.24-.486a.383.383 0 0 1 .21-.177.6.6 0 0 1 .292-.013l.386.07.392.06c.219-.33.482-.63.782-.893.294-.255.621-.47.974-.636a3.955 3.955 0 0 1 1.09-.334c.384-.06.775-.054 1.154.017.217.038.427.103.625.194.169.079.324.183.458.31.117.108.208.24.269.386a.718.718 0 0 1 .034.425.794.794 0 0 1-.141.317.958.958 0 0 1-.26.235c-.106.06-.22.101-.34.123a.877.877 0 0 1-.357.013.49.49 0 0 1-.286-.146 1.436 1.436 0 0 1-.173-.233 1.652 1.652 0 0 0-.174-.234.497.497 0 0 0-.285-.146 1.628 1.628 0 0 0-.997.13 2.305 2.305 0 0 0-.851.683l1.35.18 1.355.171.076.011a.422.422 0 0 1 .228.12.279.279 0 0 1 .07.193l-.135.51a.377.377 0 0 1-.48.269l-1.498-.19-1.506-.232-.036.123-.026.126c-.024.11-.04.22-.048.33l1.379.193 1.423.184.077.012a.29.29 0 0 1 .202.108c.05.06.071.14.06.218l-.14.519a.333.333 0 0 1-.164.208.525.525 0 0 1-.297.046l-1.152-.143-1.137-.148c.214.394.526.729.908.973.447.288.952.482 1.483.569.22.043.447.055.672.036a2.84 2.84 0 0 0 .586-.111 1.55 1.55 0 0 0 .42-.192.402.402 0 0 0 .183-.223.454.454 0 0 0-.002-.226l-.067-.186a1.57 1.57 0 0 1-.073-.2.637.637 0 0 1 .13-.524.89.89 0 0 1 .232-.201.915.915 0 0 1 .298-.108.845.845 0 0 1 .311-.005.57.57 0 0 1 .313.175.952.952 0 0 1 .211.36c.052.162.08.33.086.5.007.2-.011.402-.055.598a1.554 1.554 0 0 1-.414.76 2.676 2.676 0 0 1-.834.577c-.363.16-.748.263-1.141.306a4.414 4.414 0 0 1-1.343-.05 6.099 6.099 0 0 1-1.429-.44 4.718 4.718 0 0 1-1.112-.696 3.604 3.604 0 0 1-.771-.906 3.09 3.09 0 0 1-.387-1.062 38.74 38.74 0 0 1-.945-.148.453.453 0 0 1-.271-.128.222.222 0 0 1-.07-.193l-.015-.04a.104.104 0 0 1 .027-.058l.234-.46a.413.413 0 0 1 .218-.196.547.547 0 0 1 .29-.02l.248.043.248.042.02-.077.057-.24.074-.238-.358-.057-.298-.047zm29.586 22.309c-.344-.068-.498-.216-.45-.448l-.02-.057a.139.139 0 0 1 .048-.018l.331-.668a.527.527 0 0 1 .287-.244.825.825 0 0 1 .402-.017l.532.096.538.083a6.127 6.127 0 0 1 1.076-1.229 5.84 5.84 0 0 1 1.338-.873c.475-.225.98-.38 1.5-.46a4.747 4.747 0 0 1 1.587.023c.297.053.586.143.859.267.232.108.444.252.63.426.16.149.286.33.37.531.073.185.09.388.046.584a1.092 1.092 0 0 1-.195.436 1.317 1.317 0 0 1-.357.323 1.47 1.47 0 0 1-.468.17 1.19 1.19 0 0 1-.49.018.673.673 0 0 1-.393-.2 1.975 1.975 0 0 1-.238-.322 2.271 2.271 0 0 0-.239-.321.683.683 0 0 0-.393-.2 2.239 2.239 0 0 0-1.37.176 3.17 3.17 0 0 0-1.17.942l1.856.247 1.863.235.105.015a.58.58 0 0 1 .314.165.385.385 0 0 1 .096.265l-.186.701a.519.519 0 0 1-.66.37l-2.06-.26-2.07-.32-.05.168-.036.175c-.032.15-.055.3-.066.453l1.896.265 1.958.254.104.015a.41.41 0 0 1 .278.149.393.393 0 0 1 .084.3l-.192.714a.458.458 0 0 1-.227.286.722.722 0 0 1-.408.063l-1.584-.197-1.564-.203a3.667 3.667 0 0 0 1.248 1.338 5.37 5.37 0 0 0 2.04.782c.303.06.614.076.924.05.273-.023.543-.074.805-.153.205-.059.4-.148.577-.264a.553.553 0 0 0 .253-.307.624.624 0 0 0-.003-.31l-.093-.256a2.158 2.158 0 0 1-.1-.275.876.876 0 0 1 .18-.72c.089-.11.197-.204.318-.277a1.28 1.28 0 0 1 .838-.155.783.783 0 0 1 .43.24c.133.143.232.312.29.496.072.222.111.454.118.687.01.276-.015.552-.076.822a2.137 2.137 0 0 1-.569 1.045 3.68 3.68 0 0 1-1.146.793 5.329 5.329 0 0 1-1.57.42 6.069 6.069 0 0 1-1.846-.068 8.386 8.386 0 0 1-1.964-.605 6.487 6.487 0 0 1-1.53-.957 4.955 4.955 0 0 1-1.06-1.246 4.25 4.25 0 0 1-.532-1.46c-.45-.065-.883-.132-1.299-.203a.623.623 0 0 1-.373-.175.305.305 0 0 1-.097-.266l-.02-.057a.143.143 0 0 1 .037-.078l.322-.632a.568.568 0 0 1 .3-.27.752.752 0 0 1 .398-.027l.341.058.342.058.027-.106.079-.33.102-.326-.492-.079-.41-.065z"/></g></svg>