<svg width="123" height="117" viewBox="0 0 123 117" xmlns="http://www.w3.org/2000/svg" xmlns:xlink="http://www.w3.org/1999/xlink"><defs><rect id="id-87a" width="1104" height="656" rx="4"/></defs><g transform="translate(-231 -188)" fill="none" fill-rule="evenodd"><mask id="id-88b" fill="#fff"><use xlink:href="#id-87a"/></mask><use fill="#FFF" xlink:href="#id-87a"/><g mask="url(#id-88b)" opacity=".5"><g transform="translate(231 188)" fill-rule="nonzero" fill="#7F7F7F"><path d="M68.274 91.304h-4.15c6.986.022 12.643 5.68 12.666 12.666v8.778h4.15v-8.778c-.022-6.986-5.68-12.644-12.666-12.666z" opacity=".3"/><path d="M81.632 113.44h-39.43v-9.47c-.039-7.329 5.863-13.305 13.192-13.358h12.88c7.373.011 13.347 5.985 13.358 13.358v9.47zm-38.047-1.383H80.25v-8.087c-.008-6.61-5.365-11.967-11.975-11.975h-12.88c-6.565.054-11.847 5.41-11.809 11.975v8.087z"/><path d="M122.208 113.76H.352c-.195 0-.352-.394-.352-.88s.157-.88.352-.88h121.856c.195 0 .352.394.352.88s-.157.88-.352.88zm-61.812 3H12.484c-.267 0-.484-.394-.484-.88s.217-.88.484-.88h47.912c.267 0 .484.394.484.88s-.217.88-.484.88zm49.404 0H64.52c-.287 0-.52-.394-.52-.88s.233-.88.52-.88h45.28c.287 0 .52.394.52.88s-.233.88-.52.88z"/><path d="M60.188 112.748h-2.076V91.304h9.685v21.444h-2.075L64.282 100l1.44-1.75-1.785-2.767s2.725-2.691 2.719-3.328c-.007-.636-2.505-.546-2.505-.546l-5.001.18s.387 2.075 1.702 3.009c1.314.934.954.962.954.962l-1.473 2.393 1.238 1.653-1.383 12.943z" opacity=".3"/><path d="M68.489 113.44H57.42V90.612h11.07v22.828zm-9.685-1.383h8.301V91.995h-8.301v20.062z"/><path d="M66.49 113.44h-7.07l1.466-13.738 1.377.145-1.308 12.21h3.999l-1.3-12.21 1.376-.145z"/><path d="M62.955 101.673a.692.692 0 0 1-.492-.2l-2.767-2.768a.692.692 0 0 1-.048-.92l2.075-2.608 1.08.865-1.689 2.11 1.84 1.84 1.84-1.84-1.777-2.22 1.079-.865 2.165 2.705c.22.274.2.67-.048.92l-2.767 2.767a.692.692 0 0 1-.491.214z"/><path d="M62.955 96.201a4.365 4.365 0 0 1-4.359-4.358v-1.141h1.384v1.141a2.975 2.975 0 1 0 5.95 0v-1.141h1.383v1.141a4.365 4.365 0 0 1-4.358 4.358zm10.376 13.088h1.384v2.767h-1.384zm-22.136 0h1.384v2.767h-1.384z"/><path d="M48.517 68.814a13.434 13.434 0 0 1-7.609-9.684c-1.425-7.27 5.534-9.685 5.534-9.685 8.025-9.685 16.312-9.512 16.312-9.512 9.574 0 15.786 9.09 15.786 9.09 5.603.962 6.108 5.347 6.108 5.347 2.546 4.919-6.62 12.3-6.62 12.3l-.657.048s1.307-7.713-5.306-10.494c0 0-10.46 4.15-19.155.692l-3.369-2.034s-2.034-.865-2.206.609a30.652 30.652 0 0 0 .172 4.69l1.038 7.43-.028 1.203z" opacity=".3"/><path d="M48.324 68.987a.692.692 0 0 1-.25-.048 14.022 14.022 0 0 1-8.038-10.218c-1.383-7.062 4.628-9.912 5.797-10.376 8.073-9.685 16.374-9.63 16.741-9.622 9.041 0 15.08 7.657 16.174 9.152 5.215 1.03 6.225 4.966 6.37 5.755 2.616 5.354-6.46 12.742-6.848 13.06a.692.692 0 0 1-.844-1.05c2.428-1.959 8.301-7.825 6.44-11.443l-.055-.11v-.125c0-.152-.546-3.888-5.534-4.745l-.29-.049-.166-.242c-.063-.09-6.13-8.792-15.22-8.792-.082 0-8.086 0-15.778 9.256l-.125.152-.18.062c-.263.09-6.37 2.317-5.084 8.896a12.798 12.798 0 0 0 7.18 9.173.692.692 0 0 1-.249 1.335l-.041-.02z"/><path d="M62.85 92.01c-8.404 0-15.218-6.814-15.218-15.22V64.256a12.016 12.016 0 0 0-.581-3.127 18.802 18.802 0 0 1-.803-4.427 2.573 2.573 0 0 1 1.71-2.65 2.767 2.767 0 0 1 2.994.851c.464.616 2.934 1.453 4.449 1.82 9.539 2.766 16-1.253 16.062-1.294l.312-.2.339.151a9.567 9.567 0 0 1 5.942 8.993v12.404A15.219 15.219 0 0 1 62.85 92.009zM49.017 64.338V76.79c0 7.641 6.194 13.836 13.835 13.836 7.64 0 13.835-6.195 13.835-13.836V64.34a8.018 8.018 0 0 0-4.794-7.52c-1.5.844-7.83 3.895-16.837 1.266-.692-.166-4.269-1.08-5.202-2.324a1.384 1.384 0 0 0-1.453-.367c-.524.225-.835.77-.761 1.335.086 1.38.332 2.745.733 4.068.388 1.152.604 2.354.644 3.57v-.028z"/><path d="M77.378 71.754v5.534c-.023 8.014-6.514 14.505-14.527 14.528-8.014-.023-14.504-6.514-14.527-14.528v-5.534s2.352 9.27 4.15 10.377c1.799 1.107 4.15-.692 4.15-.692s3.46-2.629 11.07 0c0 0 2.766 1.799 4.15 0 1.383-1.799 5.534-9.685 5.534-9.685z" opacity=".3"/><path d="M62.85 92.507c-8.404 0-15.218-6.813-15.218-15.219V66.22l1.384 5.368c.947 3.736 2.767 9.298 3.846 9.955 1.383.837 3.348-.637 3.369-.65.152-.118 3.846-2.823 11.711-.104l.152.076s2.249 1.425 3.224.159c1.328-1.73 5.43-9.505 5.472-9.588l1.3-2.476v8.3a15.219 15.219 0 0 1-15.24 15.247zm-13.834-15.91v.691c0 7.641 6.194 13.836 13.835 13.836 7.64 0 13.835-6.195 13.835-13.836v-2.767a83.946 83.946 0 0 1-4.296 7.347c-1.383 1.785-3.825.94-5.001.207-7.05-2.407-10.321-.096-10.377-.076-.055.021-2.767 2.076-4.925.727-1.065-.678-2.207-3.487-3.071-6.115v-.014z"/><path d="M62.837 85.825a6.793 6.793 0 0 1-3.742-1.059.692.692 0 0 1 .802-1.127c.118.083 2.65 1.785 6.226-.049a.693.693 0 0 1 .636 1.232 8.426 8.426 0 0 1-3.922 1.003zm1.287-7.672a2.988 2.988 0 0 1-2.408-1.01c-1.487-1.757-.567-5.077-.456-5.45a.693.693 0 0 1 1.328.393c-.242.817-.692 3.155.187 4.151.485.47 1.18.653 1.833.484a.697.697 0 1 1 .166 1.384 5.45 5.45 0 0 1-.65.048zm-6.012-9.857a.692.692 0 0 1-.692-.692 1.384 1.384 0 0 0-2.767 0 .692.692 0 1 1-1.383 0 2.767 2.767 0 0 1 5.534 0c0 .382-.31.692-.692.692zm12.452 0a.692.692 0 0 1-.692-.692 1.384 1.384 0 0 0-2.767 0 .692.692 0 1 1-1.383 0 2.767 2.767 0 0 1 5.534 0c0 .382-.31.692-.692.692zM12.66 47.32v.83a.83.83 0 1 0 1.66 0v-.83h.83a.83.83 0 0 0 0-1.66h-.83v-.83a.83.83 0 1 0-1.66 0v.83h-.83a.83.83 0 1 0 0 1.66h.83zm0 40v.83a.83.83 0 1 0 1.66 0v-.83h.83a.83.83 0 0 0 0-1.66h-.83v-.83a.83.83 0 1 0-1.66 0v.83h-.83a.83.83 0 1 0 0 1.66h.83zm95.667-40.666v.664a.664.664 0 0 0 1.327 0v-.664h.664a.664.664 0 0 0 0-1.327h-.664v-.663a.664.664 0 0 0-1.327 0v.663h-.663a.664.664 0 0 0 0 1.327h.663zm-.333-32.667v.497a.497.497 0 1 0 .993 0v-.497h.497a.497.497 0 0 0 0-.993h-.497v-.497a.497.497 0 1 0-.993 0v.497h-.497a.497.497 0 0 0 0 .993h.497z"/><circle cx="27.632" cy="57.198" r="1"/><path d="M68.66 23.32v.83a.83.83 0 1 0 1.66 0v-.83h.83a.83.83 0 0 0 0-1.66h-.83v-.83a.83.83 0 1 0-1.66 0v.83h-.83a.83.83 0 1 0 0 1.66h.83z"/><circle cx="35.887" cy="1.453" r="1"/><circle cx="11.887" cy="9.453" r="1"/><circle cx="91.887" cy="9.453" r="1"/><circle cx="99.887" cy="73.453" r="1"/><circle cx="115.887" cy="97.453" r="1"/><path d="M20.151 22.442c-.449.052-.707-.073-.765-.385l-.053-.064a.16.16 0 0 1 .05-.042l.066-.974a.63.63 0 0 1 .224-.422.976.976 0 0 1 .475-.183l.688-.09.69-.11c.136-.694.366-1.36.684-1.98a6.824 6.824 0 0 1 1.176-1.636c.46-.473.992-.87 1.577-1.179a5.665 5.665 0 0 1 1.923-.604 4.513 4.513 0 0 1 1.167-.006c.333.043.66.14.97.285.267.123.51.301.71.522.181.203.302.453.347.717.04.21.034.425-.018.628-.053.2-.145.387-.269.55a1.72 1.72 0 0 1-.478.401 1.427 1.427 0 0 1-.582.218.894.894 0 0 1-.573-.095 2.89 2.89 0 0 1-.447-.31c-.14-.116-.29-.22-.447-.31a.908.908 0 0 0-.573-.096c-.6.074-1.148.345-1.563.77a3.763 3.763 0 0 0-.94 1.655l2.359-.43 2.36-.448.134-.022a.774.774 0 0 1 .46.082.569.569 0 0 1 .248.296l.125.959a.637.637 0 0 1-.137.512.611.611 0 0 1-.475.217l-2.609.495-2.652.424.024.232.044.234c.035.201.084.401.145.598l2.415-.422 2.484-.463.134-.022a.544.544 0 0 1 .409.076.583.583 0 0 1 .25.344l.123.978a.57.57 0 0 1-.13.452.843.843 0 0 1-.46.241l-2.005.385-1.985.369c.625.566 1.37.974 2.17 1.188a6.933 6.933 0 0 0 2.845.171 4.019 4.019 0 0 0 1.137-.305 4.53 4.53 0 0 0 .894-.515 2.46 2.46 0 0 0 .563-.564.685.685 0 0 0 .152-.487.905.905 0 0 0-.158-.39l-.24-.286a3.22 3.22 0 0 1-.256-.307 1.208 1.208 0 0 1-.143-.98 1.46 1.46 0 0 1 .246-.476 1.45 1.45 0 0 1 .419-.351 1.38 1.38 0 0 1 .513-.179c.217-.025.44.021.637.132.23.126.434.3.597.509.196.252.359.527.484.82.149.343.255.701.317 1.066a2.772 2.772 0 0 1-.165 1.545 4.318 4.318 0 0 1-.986 1.457 6.151 6.151 0 0 1-1.68 1.158 7.272 7.272 0 0 1-2.257.65c-.879.12-1.774.126-2.667.022a8.818 8.818 0 0 1-2.318-.596 7.175 7.175 0 0 1-1.897-1.147 6.333 6.333 0 0 1-1.367-1.628c-.575.098-1.13.185-1.666.262a.822.822 0 0 1-.536-.072.451.451 0 0 1-.249-.296l-.053-.064a.188.188 0 0 1 .007-.113l.072-.926a.683.683 0 0 1 .226-.46.886.886 0 0 1 .467-.193l.44-.063.44-.063-.02-.146-.07-.446-.04-.453-.631.098-.527.08zM58.563 6.56c-.25-.05-.362-.157-.327-.326l-.015-.042a.1.1 0 0 1 .035-.013l.24-.485a.383.383 0 0 1 .21-.178.6.6 0 0 1 .292-.012l.386.07.392.06c.219-.33.482-.631.782-.894.293-.255.62-.468.973-.635a3.955 3.955 0 0 1 1.09-.334c.385-.06.775-.054 1.155.017.217.038.426.103.625.194.169.078.323.183.458.31.117.108.208.24.269.386a.718.718 0 0 1 .034.424.794.794 0 0 1-.142.317.958.958 0 0 1-.26.235c-.105.06-.22.102-.34.124a.877.877 0 0 1-.356.013.49.49 0 0 1-.286-.146 1.436 1.436 0 0 1-.173-.233 1.652 1.652 0 0 0-.174-.234.497.497 0 0 0-.286-.146 1.628 1.628 0 0 0-.997.129 2.305 2.305 0 0 0-.85.684l1.35.18 1.354.17.077.012a.422.422 0 0 1 .228.12.279.279 0 0 1 .07.193l-.135.51a.377.377 0 0 1-.48.269l-1.498-.19-1.506-.232-.036.122-.026.127c-.024.109-.04.22-.049.33l1.38.193 1.423.184.077.012a.286.286 0 0 1 .263.326l-.14.519a.333.333 0 0 1-.165.208.525.525 0 0 1-.297.046L62.036 8.8l-1.138-.148c.215.394.527.729.909.973.447.288.952.482 1.483.569.22.043.447.055.672.036a2.84 2.84 0 0 0 .585-.111 1.55 1.55 0 0 0 .42-.192.402.402 0 0 0 .184-.223.454.454 0 0 0-.002-.226l-.068-.186a1.57 1.57 0 0 1-.072-.2.637.637 0 0 1 .13-.524.89.89 0 0 1 .232-.201.915.915 0 0 1 .298-.109.845.845 0 0 1 .311-.004.57.57 0 0 1 .313.175.952.952 0 0 1 .211.36c.052.162.08.33.086.5.007.2-.012.401-.056.598a1.554 1.554 0 0 1-.414.76 2.676 2.676 0 0 1-.833.577c-.363.16-.748.263-1.141.306a4.414 4.414 0 0 1-1.343-.05 6.099 6.099 0 0 1-1.429-.44 4.718 4.718 0 0 1-1.112-.697 3.604 3.604 0 0 1-.772-.905 3.09 3.09 0 0 1-.386-1.062 38.74 38.74 0 0 1-.945-.148.453.453 0 0 1-.271-.128.222.222 0 0 1-.07-.193l-.016-.041a.104.104 0 0 1 .028-.057l.234-.46a.413.413 0 0 1 .217-.196.547.547 0 0 1 .29-.02l.249.043.248.042.02-.078.057-.239.074-.238-.358-.057-.298-.047zm29.586 22.308c-.345-.067-.498-.215-.45-.448l-.02-.057a.139.139 0 0 1 .048-.017l.33-.668a.527.527 0 0 1 .287-.244.825.825 0 0 1 .403-.018l.531.097.538.083a6.127 6.127 0 0 1 1.077-1.229 5.84 5.84 0 0 1 1.338-.873c.475-.225.98-.38 1.5-.46a4.747 4.747 0 0 1 1.586.023c.298.053.586.142.86.267.231.108.444.252.629.426.16.149.286.33.37.53a1 1 0 0 1 .047.585 1.092 1.092 0 0 1-.195.436 1.317 1.317 0 0 1-.357.323c-.145.082-.304.14-.468.17-.161.04-.328.045-.49.018a.673.673 0 0 1-.393-.2 1.975 1.975 0 0 1-.239-.322 2.271 2.271 0 0 0-.238-.321.683.683 0 0 0-.393-.2 2.239 2.239 0 0 0-1.37.176 3.17 3.17 0 0 0-1.17.941l1.856.248 1.862.234.105.016a.58.58 0 0 1 .314.165.38.38 0 0 1 .097.265l-.187.701a.519.519 0 0 1-.66.37l-2.06-.26-2.07-.32-.05.168-.035.174c-.033.15-.055.302-.067.454l1.896.265 1.958.254.105.015c.11.01.21.064.278.149a.393.393 0 0 1 .084.3l-.193.713a.458.458 0 0 1-.227.287.722.722 0 0 1-.407.062l-1.584-.196-1.565-.203a3.667 3.667 0 0 0 1.249 1.338 5.38 5.38 0 0 0 2.04.782c.303.059.614.076.923.05a3.89 3.89 0 0 0 .806-.154 2.12 2.12 0 0 0 .577-.263.553.553 0 0 0 .253-.307.624.624 0 0 0-.003-.31l-.093-.256a2.158 2.158 0 0 1-.1-.275.876.876 0 0 1 .18-.72 1.19 1.19 0 0 1 .728-.427c.141-.028.286-.03.428-.005a.783.783 0 0 1 .43.24c.132.143.232.312.29.496.071.222.11.453.118.687.01.276-.016.552-.076.822a2.137 2.137 0 0 1-.57 1.045 3.68 3.68 0 0 1-1.146.793 5.329 5.329 0 0 1-1.569.42 6.069 6.069 0 0 1-1.846-.068 8.386 8.386 0 0 1-1.965-.606 6.487 6.487 0 0 1-1.53-.956 4.955 4.955 0 0 1-1.06-1.246 4.25 4.25 0 0 1-.531-1.46c-.45-.065-.884-.133-1.3-.203a.623.623 0 0 1-.372-.176.305.305 0 0 1-.097-.265l-.02-.057a.143.143 0 0 1 .037-.078l.322-.633a.568.568 0 0 1 .299-.27.752.752 0 0 1 .399-.026l.341.058.341.058.028-.107.079-.329.101-.327-.492-.078-.41-.066z"/></g></g></g></svg>